<svg width="288" height="68" viewBox="0 0 288 68" fill="none" xmlns="http://www.w3.org/2000/svg">
<path d="M58.2913 36.484L60.8473 36.448V37.924C60.5593 37.876 60.2233 37.852 59.8393 37.852C59.4553 37.852 59.0233 37.876 58.5433 37.924C58.5433 39.772 57.6553 41.644 55.8793 43.54C54.1033 45.436 51.9553 46.972 49.4353 48.148C46.9393 49.348 44.6113 49.948 42.4513 49.948C41.3233 49.948 40.3993 49.66 39.6793 49.084C38.9833 48.508 38.6353 47.752 38.6353 46.816C38.6353 45.424 39.5593 43.972 41.4073 42.46C43.2553 40.948 45.4153 39.7 47.8873 38.716C50.3593 37.732 52.5913 37.156 54.5833 36.988C54.3433 36.628 53.9713 36.316 53.4673 36.052C52.9633 35.788 51.9313 35.38 50.3713 34.828C48.8113 34.252 47.7073 33.628 47.0593 32.956C46.4113 32.26 46.0873 31.288 46.0873 30.04C46.0873 28.792 46.7593 27.364 48.1033 25.756C49.4473 24.148 51.0313 22.804 52.8553 21.724C54.7033 20.62 56.3233 20.068 57.7153 20.068C58.3393 20.068 58.8553 20.296 59.2633 20.752C59.6713 21.184 59.8753 21.724 59.8753 22.372C59.8753 23.428 59.2393 24.76 57.9673 26.368C56.6953 27.952 55.2793 29.164 53.7193 30.004L52.8553 28.78C53.7913 28.3 54.6073 27.556 55.3033 26.548C56.0233 25.516 56.3833 24.628 56.3833 23.884C56.3833 23.14 55.9873 22.768 55.1953 22.768C54.0673 22.768 52.7713 23.476 51.3073 24.892C49.8673 26.284 49.1473 27.592 49.1473 28.816C49.1473 29.656 49.3633 30.316 49.7953 30.796C50.2273 31.276 51.3193 31.876 53.0713 32.596C54.8233 33.292 56.0713 33.916 56.8153 34.468C57.5593 34.996 58.0513 35.668 58.2913 36.484ZM42.2353 45.88C42.2353 47.032 43.1713 47.608 45.0433 47.608C46.0753 47.608 47.4073 47.224 49.0393 46.456C50.6953 45.712 52.1473 44.656 53.3953 43.288C54.6673 41.944 55.3033 40.564 55.3033 39.148C55.3033 38.98 55.2673 38.728 55.1953 38.392C51.9073 38.704 48.9193 39.628 46.2313 41.164C43.5673 42.7 42.2353 44.272 42.2353 45.88ZM81.4244 28.996L82.4324 29.932L80.2724 32.56C77.7284 35.704 75.8444 38.824 74.6204 41.92C74.3084 42.568 73.9844 42.892 73.6484 42.892C73.3364 42.892 73.0724 42.856 72.8564 42.784C72.6644 42.688 72.4364 42.376 72.1724 41.848C71.9324 41.32 71.7644 40.684 71.6684 39.94C71.5724 39.196 71.4884 38.56 71.4164 38.032C71.3444 37.504 71.2964 37.12 71.2724 36.88C71.2484 36.616 71.2124 36.352 71.1644 36.088C71.1404 35.8 71.1164 35.584 71.0924 35.44C71.0684 35.296 71.0444 35.152 71.0204 35.008C70.9964 34.864 70.9604 34.732 70.9124 34.612C70.8644 34.468 70.8284 34.348 70.8044 34.252C70.7804 34.132 70.7204 33.94 70.6244 33.676C70.5524 33.412 70.4924 33.184 70.4444 32.992C69.1964 34.336 68.1284 35.92 67.2404 37.744C66.9044 38.44 66.2444 39.832 65.2604 41.92C65.0444 42.376 64.7444 42.604 64.3604 42.604C64.0004 42.604 63.7004 42.568 63.4604 42.496C63.2444 42.4 63.0164 42.112 62.7764 41.632C62.5364 41.152 62.3564 40.432 62.2364 39.472C61.6604 34.648 61.1084 31.36 60.5804 29.608C61.2764 29.416 61.9724 29.32 62.6684 29.32C62.7884 29.536 62.9444 30.196 63.1364 31.3C63.5444 33.436 64.0604 35.944 64.6844 38.824C65.8604 36.568 67.1564 34.492 68.5724 32.596C70.0124 30.676 70.9604 29.716 71.4164 29.716C71.9444 29.716 72.3044 30.088 72.4964 30.832C72.7124 31.552 72.8924 32.776 73.0364 34.504C73.2044 36.208 73.4204 37.636 73.6844 38.788C75.9404 34.924 78.5204 31.66 81.4244 28.996ZM92.1769 38.752L93.0049 39.4C92.2609 40.432 91.2409 41.296 89.9449 41.992C88.6489 42.664 87.3889 43 86.1649 43C84.9409 43 83.9569 42.64 83.2129 41.92C82.4689 41.2 82.0969 40.252 82.0969 39.076C82.0969 36.868 83.2609 34.696 85.5889 32.56C87.9409 30.424 90.3169 29.356 92.7169 29.356C94.3009 29.356 95.0929 29.98 95.0929 31.228C95.0929 32.524 94.2529 33.832 92.5729 35.152C90.9169 36.472 88.5769 37.672 85.5529 38.752C85.7689 39.304 86.1049 39.736 86.5609 40.048C87.0169 40.36 87.4849 40.516 87.9649 40.516C88.9969 40.516 90.4009 39.928 92.1769 38.752ZM85.3729 37.672C87.3169 37 88.9849 36.16 90.3769 35.152C91.7689 34.144 92.4649 33.22 92.4649 32.38C92.4649 32.068 92.3449 31.792 92.1049 31.552C91.8649 31.312 91.5889 31.192 91.2769 31.192C90.1489 31.192 88.9249 31.9 87.6049 33.316C86.3089 34.708 85.5649 36.16 85.3729 37.672ZM105.528 38.752L106.356 39.4C105.612 40.432 104.592 41.296 103.296 41.992C102 42.664 100.74 43 99.5158 43C98.2918 43 97.3078 42.64 96.5638 41.92C95.8198 41.2 95.4478 40.252 95.4478 39.076C95.4478 36.868 96.6118 34.696 98.9398 32.56C101.292 30.424 103.668 29.356 106.068 29.356C107.652 29.356 108.444 29.98 108.444 31.228C108.444 32.524 107.604 33.832 105.924 35.152C104.268 36.472 101.928 37.672 98.9038 38.752C99.1198 39.304 99.4558 39.736 99.9118 40.048C100.368 40.36 100.836 40.516 101.316 40.516C102.348 40.516 103.752 39.928 105.528 38.752ZM98.7238 37.672C100.668 37 102.336 36.16 103.728 35.152C105.12 34.144 105.816 33.22 105.816 32.38C105.816 32.068 105.696 31.792 105.456 31.552C105.216 31.312 104.94 31.192 104.628 31.192C103.5 31.192 102.276 31.9 100.956 33.316C99.6598 34.708 98.9158 36.16 98.7238 37.672ZM117.223 38.968L118.015 39.868C117.415 40.804 116.683 41.536 115.819 42.064C114.979 42.592 114.127 42.856 113.263 42.856C112.399 42.856 111.715 42.616 111.211 42.136C110.707 41.632 110.455 40.948 110.455 40.084C110.455 38.068 111.211 35.284 112.723 31.732C111.499 31.924 110.275 32.212 109.051 32.596L108.799 31.192L108.763 31.156C109.963 30.652 111.535 30.244 113.479 29.932C113.671 29.572 114.103 28.696 114.775 27.304C116.119 24.544 117.079 22.756 117.655 21.94L119.203 22.552C118.963 23.08 118.543 23.968 117.943 25.216C117.343 26.44 116.671 27.832 115.927 29.392C117.007 29.32 117.859 29.284 118.483 29.284C119.107 29.284 119.587 29.38 119.923 29.572V31.12C119.587 31.048 119.095 31.012 118.447 31.012C117.823 31.012 116.695 31.12 115.063 31.336C113.647 34.504 112.939 36.808 112.939 38.248C112.939 38.8 113.107 39.256 113.443 39.616C113.803 39.976 114.271 40.156 114.847 40.156C115.447 40.156 116.239 39.76 117.223 38.968ZM154.682 20.644L163.214 20.896C163.646 20.896 164.186 20.8 164.834 20.608C165.506 20.392 165.95 20.284 166.166 20.284C166.382 20.284 166.55 20.356 166.67 20.5C166.814 20.62 166.886 20.776 166.886 20.968C166.886 21.472 166.658 21.904 166.202 22.264C165.746 22.6 165.146 22.84 164.402 22.984C163.01 23.296 161.774 23.452 160.694 23.452C159.23 24.46 157.802 27.364 156.41 32.164C158.786 32.164 160.262 32.2 160.838 32.272L160.766 33.964C160.406 33.988 159.866 34 159.146 34L155.87 33.892C154.526 37.996 152.714 41.26 150.434 43.684C148.154 46.108 145.742 47.32 143.198 47.32C141.638 47.32 140.378 46.852 139.418 45.916C138.458 44.98 137.978 43.744 137.978 42.208C137.978 39.736 139.454 37.492 142.406 35.476C145.358 33.436 148.994 32.356 153.314 32.236C154.778 27.628 156.494 24.7 158.462 23.452L152.666 23.236C150.242 23.236 148.43 23.548 147.23 24.172C146.054 24.796 145.466 25.624 145.466 26.656C145.466 27.208 145.694 27.676 146.15 28.06C146.606 28.42 147.062 28.6 147.518 28.6C147.974 28.6 148.31 28.588 148.526 28.564C148.766 28.516 149.054 28.432 149.39 28.312C149.75 28.168 150.002 28.072 150.146 28.024C150.65 27.856 151.262 27.592 151.982 27.232L152.738 28.168C150.914 29.992 148.922 30.904 146.762 30.904C145.802 30.904 145.01 30.604 144.386 30.004C143.762 29.404 143.45 28.648 143.45 27.736C143.45 25.744 144.47 24.064 146.51 22.696C148.55 21.328 151.274 20.644 154.682 20.644ZM149.642 40.768C150.938 38.752 151.97 36.496 152.738 34C149.762 34.24 147.134 35.188 144.854 36.844C142.598 38.5 141.47 40.276 141.47 42.172C141.47 42.916 141.722 43.528 142.226 44.008C142.754 44.488 143.438 44.728 144.278 44.728C145.118 44.728 146.03 44.368 147.014 43.648C147.998 42.952 148.874 41.992 149.642 40.768ZM175.757 39.364L176.585 39.976C176.249 40.696 175.625 41.38 174.713 42.028C173.825 42.676 173.009 43 172.265 43C170.849 43 170.141 42.256 170.141 40.768C170.141 40.072 170.321 39.244 170.681 38.284L169.349 39.652C168.053 40.972 166.925 41.86 165.965 42.316C165.029 42.772 164.105 43 163.193 43C162.281 43 161.585 42.748 161.105 42.244C160.649 41.716 160.421 40.996 160.421 40.084C160.421 38.404 161.069 36.748 162.365 35.116C163.661 33.46 165.317 32.116 167.333 31.084C169.349 30.052 171.365 29.524 173.381 29.5L173.453 30.688L171.941 31.012C169.757 31.492 167.825 32.452 166.145 33.892C164.489 35.332 163.661 36.772 163.661 38.212C163.661 39.628 164.237 40.336 165.389 40.336C166.469 40.336 167.801 39.58 169.385 38.068C170.969 36.556 172.289 34.78 173.345 32.74L174.857 33.64C173.369 36.64 172.625 38.548 172.625 39.364C172.625 39.7 172.733 39.988 172.949 40.228C173.189 40.444 173.417 40.552 173.633 40.552C173.873 40.552 174.029 40.54 174.101 40.516C174.173 40.492 174.245 40.468 174.317 40.444C174.389 40.396 174.473 40.336 174.569 40.264C174.689 40.192 174.785 40.12 174.857 40.048C174.953 39.976 175.097 39.868 175.289 39.724C175.481 39.58 175.637 39.46 175.757 39.364ZM191.911 38.644L192.667 39.22C192.139 40.276 191.407 41.164 190.471 41.884C189.559 42.604 188.731 42.964 187.987 42.964C187.243 42.964 186.655 42.748 186.223 42.316C185.791 41.884 185.575 41.344 185.575 40.696C185.575 40.048 185.983 38.92 186.799 37.312C187.639 35.68 188.059 34.48 188.059 33.712C188.059 33.376 187.915 33.076 187.627 32.812C187.363 32.524 187.039 32.38 186.655 32.38C185.431 32.38 184.195 33.316 182.947 35.188C181.699 37.036 180.307 39.712 178.771 43.216L176.611 42.46C177.067 39.676 177.715 36.964 178.555 34.324C179.419 31.66 180.211 29.752 180.931 28.6L182.407 29.068C181.735 30.772 180.883 33.712 179.851 37.888C183.163 32.224 186.211 29.392 188.995 29.392C189.595 29.392 190.087 29.596 190.471 30.004C190.879 30.412 191.083 30.892 191.083 31.444C191.083 31.996 191.011 32.5 190.867 32.956C190.723 33.388 190.267 34.42 189.499 36.052C188.755 37.66 188.383 38.668 188.383 39.076C188.383 39.484 188.503 39.808 188.743 40.048C188.983 40.264 189.211 40.372 189.427 40.372C189.643 40.372 189.823 40.336 189.967 40.264C190.111 40.192 190.267 40.084 190.435 39.94C190.627 39.796 190.795 39.664 190.939 39.544C191.083 39.424 191.251 39.268 191.443 39.076C191.659 38.86 191.815 38.716 191.911 38.644ZM201.591 38.968L202.383 39.868C201.783 40.804 201.051 41.536 200.187 42.064C199.347 42.592 198.495 42.856 197.631 42.856C196.767 42.856 196.083 42.616 195.579 42.136C195.075 41.632 194.823 40.948 194.823 40.084C194.823 38.068 195.579 35.284 197.091 31.732C195.867 31.924 194.643 32.212 193.419 32.596L193.167 31.192L193.131 31.156C194.331 30.652 195.903 30.244 197.847 29.932C198.039 29.572 198.471 28.696 199.143 27.304C200.487 24.544 201.447 22.756 202.023 21.94L203.571 22.552C203.331 23.08 202.911 23.968 202.311 25.216C201.711 26.44 201.039 27.832 200.295 29.392C201.375 29.32 202.227 29.284 202.851 29.284C203.475 29.284 203.955 29.38 204.291 29.572V31.12C203.955 31.048 203.463 31.012 202.815 31.012C202.191 31.012 201.063 31.12 199.431 31.336C198.015 34.504 197.307 36.808 197.307 38.248C197.307 38.8 197.475 39.256 197.811 39.616C198.171 39.976 198.639 40.156 199.215 40.156C199.815 40.156 200.607 39.76 201.591 38.968ZM220.134 39.364L220.962 39.976C220.626 40.696 220.002 41.38 219.09 42.028C218.202 42.676 217.386 43 216.642 43C215.226 43 214.518 42.256 214.518 40.768C214.518 40.072 214.698 39.244 215.058 38.284L213.726 39.652C212.43 40.972 211.302 41.86 210.342 42.316C209.406 42.772 208.482 43 207.57 43C206.658 43 205.962 42.748 205.482 42.244C205.026 41.716 204.798 40.996 204.798 40.084C204.798 38.404 205.446 36.748 206.742 35.116C208.038 33.46 209.694 32.116 211.71 31.084C213.726 30.052 215.742 29.524 217.758 29.5L217.83 30.688L216.318 31.012C214.134 31.492 212.202 32.452 210.522 33.892C208.866 35.332 208.038 36.772 208.038 38.212C208.038 39.628 208.614 40.336 209.766 40.336C210.846 40.336 212.178 39.58 213.762 38.068C215.346 36.556 216.666 34.78 217.722 32.74L219.234 33.64C217.746 36.64 217.002 38.548 217.002 39.364C217.002 39.7 217.11 39.988 217.326 40.228C217.566 40.444 217.794 40.552 218.01 40.552C218.25 40.552 218.406 40.54 218.478 40.516C218.55 40.492 218.622 40.468 218.694 40.444C218.766 40.396 218.85 40.336 218.946 40.264C219.066 40.192 219.162 40.12 219.234 40.048C219.33 39.976 219.474 39.868 219.666 39.724C219.858 39.58 220.014 39.46 220.134 39.364ZM232.977 28.924L232.653 30.328C232.245 30.28 231.717 30.256 231.069 30.256C228.669 30.256 227.469 31.048 227.469 32.632C227.469 32.968 227.949 33.952 228.909 35.584C229.893 37.216 230.385 38.308 230.385 38.86C230.385 40.156 229.941 41.176 229.053 41.92C228.189 42.64 227.025 43 225.561 43C223.545 43 221.925 41.884 220.701 39.652L222.069 38.68C222.405 38.944 222.765 39.268 223.149 39.652C223.533 40.012 223.821 40.264 224.013 40.408C224.469 40.816 224.973 41.02 225.525 41.02C226.077 41.02 226.557 40.828 226.965 40.444C227.373 40.036 227.577 39.544 227.577 38.968C227.577 38.368 227.049 37.264 225.993 35.656C224.961 34.048 224.445 32.92 224.445 32.272C224.445 31.096 224.937 30.196 225.921 29.572C226.929 28.948 228.237 28.636 229.845 28.636C231.477 28.636 232.521 28.732 232.977 28.924ZM247.558 40.732L247.666 41.668C247.57 41.74 246.454 42.172 244.318 42.964C244.03 44.548 243.658 46.108 243.202 47.644C242.77 49.204 242.326 50.38 241.87 51.172C241.438 51.988 240.922 52.792 240.322 53.584C239.122 55.168 237.502 55.96 235.462 55.96C234.454 55.96 233.65 55.648 233.05 55.024C232.45 54.4 232.15 53.548 232.15 52.468C232.15 48.316 235.63 44.98 242.59 42.46L244.534 35.62C242.47 38.716 240.61 40.624 238.954 41.344C238.138 41.728 237.274 41.92 236.362 41.92C235.474 41.92 234.754 41.632 234.202 41.056C233.674 40.48 233.41 39.64 233.41 38.536C233.41 37.432 233.782 35.896 234.526 33.928C235.294 31.936 236.146 30.268 237.082 28.924L238.846 29.68C238.774 29.752 238.438 30.388 237.838 31.588C236.782 33.772 236.254 35.392 236.254 36.448C236.254 37.504 236.458 38.212 236.866 38.572C237.274 38.932 237.874 39.112 238.666 39.112C239.458 39.112 240.346 38.644 241.33 37.708C242.338 36.748 243.886 34.864 245.974 32.056L247.27 32.812C247.078 33.604 246.646 35.044 245.974 37.132C245.326 39.196 244.882 40.78 244.642 41.884L247.558 40.732ZM242.374 43.54C240.862 44.236 239.53 45.028 238.378 45.916C236.218 47.548 235.138 49.132 235.138 50.668C235.138 51.244 235.306 51.712 235.642 52.072C235.978 52.432 236.398 52.612 236.902 52.612C239.302 52.612 241.126 49.588 242.374 43.54Z" fill="#FF0EBB"/>
</svg>
